<mxfile host="Electron" agent="Mozilla/5.0 (Windows NT 10.0; Win64; x64) AppleWebKit/537.36 (KHTML, like Gecko) draw.io/24.7.5 Chrome/126.0.6478.183 Electron/31.3.0 Safari/537.36" version="24.7.5">
  <diagram name="Page-1" id="L1jsmZbv9D_z2x3_NM3u">
    <mxGraphModel dx="1098" dy="814" grid="1" gridSize="10" guides="1" tooltips="1" connect="1" arrows="1" fold="1" page="1" pageScale="1" pageWidth="827" pageHeight="1169" math="0" shadow="0">
      <root>
        <mxCell id="0" />
        <mxCell id="1" parent="0" />
        <mxCell id="KsS81xRklQ1h1bohUy4Z-2" value="" style="rounded=0;whiteSpace=wrap;html=1;" vertex="1" parent="1">
          <mxGeometry x="60" y="10" width="310" height="60" as="geometry" />
        </mxCell>
        <mxCell id="KsS81xRklQ1h1bohUy4Z-3" value="" style="whiteSpace=wrap;html=1;aspect=fixed;" vertex="1" parent="1">
          <mxGeometry x="100" y="340" width="70" height="70" as="geometry" />
        </mxCell>
        <mxCell id="KsS81xRklQ1h1bohUy4Z-4" value="" style="whiteSpace=wrap;html=1;aspect=fixed;" vertex="1" parent="1">
          <mxGeometry x="180" y="340" width="70" height="70" as="geometry" />
        </mxCell>
        <mxCell id="KsS81xRklQ1h1bohUy4Z-5" value="" style="whiteSpace=wrap;html=1;aspect=fixed;" vertex="1" parent="1">
          <mxGeometry x="260" y="340" width="70" height="70" as="geometry" />
        </mxCell>
        <mxCell id="KsS81xRklQ1h1bohUy4Z-6" value="" style="triangle;whiteSpace=wrap;html=1;" vertex="1" parent="1">
          <mxGeometry x="350" y="365" width="10" height="20" as="geometry" />
        </mxCell>
        <mxCell id="KsS81xRklQ1h1bohUy4Z-7" value="" style="rounded=0;whiteSpace=wrap;html=1;" vertex="1" parent="1">
          <mxGeometry x="60" y="130" width="310" height="190" as="geometry" />
        </mxCell>
        <mxCell id="KsS81xRklQ1h1bohUy4Z-8" value="" style="triangle;whiteSpace=wrap;html=1;rotation=-180;" vertex="1" parent="1">
          <mxGeometry x="70" y="365" width="10" height="20" as="geometry" />
        </mxCell>
        <mxCell id="KsS81xRklQ1h1bohUy4Z-11" value="" style="rounded=0;whiteSpace=wrap;html=1;" vertex="1" parent="1">
          <mxGeometry x="60" y="90" width="86" height="20" as="geometry" />
        </mxCell>
        <mxCell id="KsS81xRklQ1h1bohUy4Z-12" value="" style="rounded=0;whiteSpace=wrap;html=1;" vertex="1" parent="1">
          <mxGeometry x="172" y="90" width="86" height="20" as="geometry" />
        </mxCell>
        <mxCell id="KsS81xRklQ1h1bohUy4Z-13" value="" style="rounded=0;whiteSpace=wrap;html=1;" vertex="1" parent="1">
          <mxGeometry x="284" y="90" width="86" height="20" as="geometry" />
        </mxCell>
        <mxCell id="KsS81xRklQ1h1bohUy4Z-14" value="" style="rounded=0;whiteSpace=wrap;html=1;" vertex="1" parent="1">
          <mxGeometry x="64" y="430" width="306" height="140" as="geometry" />
        </mxCell>
        <mxCell id="KsS81xRklQ1h1bohUy4Z-15" value="" style="rounded=0;whiteSpace=wrap;html=1;" vertex="1" parent="1">
          <mxGeometry x="60" y="600" width="310" height="550" as="geometry" />
        </mxCell>
        <mxCell id="KsS81xRklQ1h1bohUy4Z-16" value="" style="rounded=0;whiteSpace=wrap;html=1;" vertex="1" parent="1">
          <mxGeometry x="70" y="830" width="290" height="190" as="geometry" />
        </mxCell>
        <mxCell id="KsS81xRklQ1h1bohUy4Z-17" value="" style="line;strokeWidth=1;rotatable=0;dashed=0;labelPosition=right;align=left;verticalAlign=middle;spacingTop=0;spacingLeft=6;points=[];portConstraint=eastwest;" vertex="1" parent="1">
          <mxGeometry x="110" y="620" width="60" height="10" as="geometry" />
        </mxCell>
        <mxCell id="KsS81xRklQ1h1bohUy4Z-18" value="" style="line;strokeWidth=1;rotatable=0;dashed=0;labelPosition=right;align=left;verticalAlign=middle;spacingTop=0;spacingLeft=6;points=[];portConstraint=eastwest;" vertex="1" parent="1">
          <mxGeometry x="110" y="640" width="210" height="10" as="geometry" />
        </mxCell>
        <mxCell id="KsS81xRklQ1h1bohUy4Z-19" value="" style="line;strokeWidth=1;rotatable=0;dashed=0;labelPosition=right;align=left;verticalAlign=middle;spacingTop=0;spacingLeft=6;points=[];portConstraint=eastwest;" vertex="1" parent="1">
          <mxGeometry x="110" y="734.5" width="60" height="10" as="geometry" />
        </mxCell>
        <mxCell id="KsS81xRklQ1h1bohUy4Z-20" value="" style="line;strokeWidth=1;rotatable=0;dashed=0;labelPosition=right;align=left;verticalAlign=middle;spacingTop=0;spacingLeft=6;points=[];portConstraint=eastwest;" vertex="1" parent="1">
          <mxGeometry x="109" y="670" width="91" height="10" as="geometry" />
        </mxCell>
        <mxCell id="KsS81xRklQ1h1bohUy4Z-21" value="" style="line;strokeWidth=1;rotatable=0;dashed=0;labelPosition=right;align=left;verticalAlign=middle;spacingTop=0;spacingLeft=6;points=[];portConstraint=eastwest;" vertex="1" parent="1">
          <mxGeometry x="109" y="700" width="161" height="10" as="geometry" />
        </mxCell>
        <mxCell id="KsS81xRklQ1h1bohUy4Z-22" value="" style="line;strokeWidth=1;rotatable=0;dashed=0;labelPosition=right;align=left;verticalAlign=middle;spacingTop=0;spacingLeft=6;points=[];portConstraint=eastwest;" vertex="1" parent="1">
          <mxGeometry x="110" y="770" width="210" height="10" as="geometry" />
        </mxCell>
        <mxCell id="KsS81xRklQ1h1bohUy4Z-23" value="" style="line;strokeWidth=1;rotatable=0;dashed=0;labelPosition=right;align=left;verticalAlign=middle;spacingTop=0;spacingLeft=6;points=[];portConstraint=eastwest;" vertex="1" parent="1">
          <mxGeometry x="110" y="790" width="210" height="10" as="geometry" />
        </mxCell>
        <mxCell id="KsS81xRklQ1h1bohUy4Z-24" value="" style="verticalLabelPosition=bottom;verticalAlign=top;html=1;shape=mxgraph.flowchart.on-page_reference;" vertex="1" parent="1">
          <mxGeometry x="173.75" y="1120" width="20" height="20" as="geometry" />
        </mxCell>
        <mxCell id="KsS81xRklQ1h1bohUy4Z-25" value="" style="verticalLabelPosition=bottom;verticalAlign=top;html=1;shape=mxgraph.flowchart.on-page_reference;" vertex="1" parent="1">
          <mxGeometry x="204.25" y="1120" width="20" height="20" as="geometry" />
        </mxCell>
        <mxCell id="KsS81xRklQ1h1bohUy4Z-26" value="" style="verticalLabelPosition=bottom;verticalAlign=top;html=1;shape=mxgraph.flowchart.on-page_reference;" vertex="1" parent="1">
          <mxGeometry x="236.25" y="1120" width="20" height="20" as="geometry" />
        </mxCell>
        <mxCell id="KsS81xRklQ1h1bohUy4Z-28" value="" style="line;strokeWidth=1;rotatable=0;dashed=0;labelPosition=right;align=left;verticalAlign=middle;spacingTop=0;spacingLeft=6;points=[];portConstraint=eastwest;" vertex="1" parent="1">
          <mxGeometry x="184.25" y="440" width="60" height="10" as="geometry" />
        </mxCell>
        <mxCell id="KsS81xRklQ1h1bohUy4Z-29" value="" style="line;strokeWidth=1;rotatable=0;dashed=0;labelPosition=right;align=left;verticalAlign=middle;spacingTop=0;spacingLeft=6;points=[];portConstraint=eastwest;" vertex="1" parent="1">
          <mxGeometry x="80" y="460" width="180" height="10" as="geometry" />
        </mxCell>
        <mxCell id="KsS81xRklQ1h1bohUy4Z-30" value="" style="line;strokeWidth=1;rotatable=0;dashed=0;labelPosition=right;align=left;verticalAlign=middle;spacingTop=0;spacingLeft=6;points=[];portConstraint=eastwest;" vertex="1" parent="1">
          <mxGeometry x="80" y="480" width="260" height="10" as="geometry" />
        </mxCell>
        <mxCell id="KsS81xRklQ1h1bohUy4Z-31" value="" style="line;strokeWidth=1;rotatable=0;dashed=0;labelPosition=right;align=left;verticalAlign=middle;spacingTop=0;spacingLeft=6;points=[];portConstraint=eastwest;" vertex="1" parent="1">
          <mxGeometry x="80" y="495" width="260" height="10" as="geometry" />
        </mxCell>
        <mxCell id="KsS81xRklQ1h1bohUy4Z-32" value="" style="line;strokeWidth=1;rotatable=0;dashed=0;labelPosition=right;align=left;verticalAlign=middle;spacingTop=0;spacingLeft=6;points=[];portConstraint=eastwest;" vertex="1" parent="1">
          <mxGeometry x="80" y="530" width="110" height="10" as="geometry" />
        </mxCell>
        <mxCell id="KsS81xRklQ1h1bohUy4Z-33" value="" style="line;strokeWidth=1;rotatable=0;dashed=0;labelPosition=right;align=left;verticalAlign=middle;spacingTop=0;spacingLeft=6;points=[];portConstraint=eastwest;" vertex="1" parent="1">
          <mxGeometry x="80" y="540" width="260" height="10" as="geometry" />
        </mxCell>
        <mxCell id="KsS81xRklQ1h1bohUy4Z-34" value="" style="line;strokeWidth=1;rotatable=0;dashed=0;labelPosition=right;align=left;verticalAlign=middle;spacingTop=0;spacingLeft=6;points=[];portConstraint=eastwest;" vertex="1" parent="1">
          <mxGeometry x="100" y="1070" width="210" height="10" as="geometry" />
        </mxCell>
        <mxCell id="KsS81xRklQ1h1bohUy4Z-35" value="" style="line;strokeWidth=1;rotatable=0;dashed=0;labelPosition=right;align=left;verticalAlign=middle;spacingTop=0;spacingLeft=6;points=[];portConstraint=eastwest;" vertex="1" parent="1">
          <mxGeometry x="80" y="1030" width="90" height="10" as="geometry" />
        </mxCell>
        <mxCell id="KsS81xRklQ1h1bohUy4Z-36" value="" style="line;strokeWidth=1;rotatable=0;dashed=0;labelPosition=right;align=left;verticalAlign=middle;spacingTop=0;spacingLeft=6;points=[];portConstraint=eastwest;" vertex="1" parent="1">
          <mxGeometry x="100" y="1050" width="60" height="10" as="geometry" />
        </mxCell>
        <mxCell id="KsS81xRklQ1h1bohUy4Z-37" value="" style="line;strokeWidth=1;rotatable=0;dashed=0;labelPosition=right;align=left;verticalAlign=middle;spacingTop=0;spacingLeft=6;points=[];portConstraint=eastwest;" vertex="1" parent="1">
          <mxGeometry x="100" y="1090" width="210" height="10" as="geometry" />
        </mxCell>
      </root>
    </mxGraphModel>
  </diagram>
</mxfile>
